{
  "accessors": [
    {
      "bufferView": 2,
      "componentType": 5126,
      "count": 4515,
      "max": [
        0.11749665439128876,
        0.3695997893810272,
        0.36959996819496155
      ],
      "min": [
        -0.11749665439128876,
        -0.3695999085903168,
        -0.36959996819496155
      ],
      "type": "VEC3"
    },
    {
      "bufferView": 2,
      "byteOffset": 54180,
      "componentType": 5126,
      "count": 4515,
      "max": [
        1.0,
        1.0,
        1.0
      ],
      "min": [
        -1.0,
        -1.0,
        -1.0
      ],
      "type": "VEC3"
    },
    {
      "bufferView": 3,
      "componentType": 5126,
      "count": 4515,
      "max": [
        1.0,
        0.9999269247055054,
        1.0,
        1.0
      ],
      "min": [
        -1.0,
        -1.0,
        -1.0,
        1.0
      ],
      "type": "VEC4"
    },
    {
      "bufferView": 1,
      "componentType": 5126,
      "count": 4515,
      "max": [
        0.9935568571090698,
        0.9957702159881592
      ],
      "min": [
        0.0025853123515844345,
        0.002737338887527585
      ],
      "type": "VEC2"
    },
    {
      "bufferView": 1,
      "byteOffset": 36120,
      "componentType": 5126,
      "count": 4515,
      "max": [
        0.9168933629989624,
        0.9168895483016968
      ],
      "min": [
        0.0,
        0.0
      ],
      "type": "VEC2"
    },
    {
      "bufferView": 1,
      "byteOffset": 72240,
      "componentType": 5126,
      "count": 4515,
      "max": [
        0.9935568571090698,
        0.9957702159881592
      ],
      "min": [
        0.0025853123515844345,
        0.002737338887527585
      ],
      "type": "VEC2"
    },
    {
      "bufferView": 0,
      "componentType": 5125,
      "count": 18240,
      "type": "SCALAR"
    }
  ],
  "asset": {
    "extras": {
      "author": "KrStolorz (Krzysztof Stolorz) (https://sketchfab.com/KrStolorz)",
      "license": "SKETCHFAB Standard (https://sketchfab.com/licenses)",
      "source": "https://sketchfab.com/3d-models/mb-wheel-lp-from-500-followers-milestone-97463ad155d14209a5cf84b4e7644f3c",
      "title": "MB Wheel (LP) - from \"500 followers milestone\""
    },
    "generator": "Sketchfab-15.49.0",
    "version": "2.0"
  },
  "bufferViews": [
    {
      "buffer": 0,
      "byteLength": 72960,
      "name": "floatBufferViews",
      "target": 34963
    },
    {
      "buffer": 0,
      "byteLength": 108360,
      "byteOffset": 72960,
      "byteStride": 8,
      "name": "floatBufferViews",
      "target": 34962
    },
    {
      "buffer": 0,
      "byteLength": 108360,
      "byteOffset": 181320,
      "byteStride": 12,
      "name": "floatBufferViews",
      "target": 34962
    },
    {
      "buffer": 0,
      "byteLength": 72240,
      "byteOffset": 289680,
      "byteStride": 16,
      "name": "floatBufferViews",
      "target": 34962
    }
  ],
  "buffers": [
    {
      "byteLength": 361920,
      "uri": "scene.bin"
    }
  ],
  "images": [
    {
      "uri": "textures/Tire_baseColor.png"
    },
    {
      "uri": "textures/Tire_metallicRoughness.png"
    },
    {
      "uri": "textures/Tire_normal.png"
    }
  ],
  "materials": [
    {
      "doubleSided": true,
      "name": "Tire",
      "normalTexture": {
        "index": 2
      },
      "pbrMetallicRoughness": {
        "baseColorTexture": {
          "index": 0
        },
        "metallicRoughnessTexture": {
          "index": 1
        }
      }
    }
  ],
  "meshes": [
    {
      "name": "Wheel FL_Tire_0",
      "primitives": [
        {
          "attributes": {
            "NORMAL": 1,
            "POSITION": 0,
            "TANGENT": 2,
            "TEXCOORD_0": 3,
            "TEXCOORD_1": 4,
            "TEXCOORD_2": 5
          },
          "indices": 6,
          "material": 0,
          "mode": 4
        }
      ]
    }
  ],
  "nodes": [
    {
      "children": [
        1
      ],
      "matrix": [
        1.0,
        0.0,
        0.0,
        0.0,
        0.0,
        2.220446049250313e-16,
        -1.0,
        0.0,
        0.0,
        1.0,
        2.220446049250313e-16,
        0.0,
        0.0,
        0.0,
        0.0,
        1.0
      ],
      "name": "Sketchfab_model"
    },
    {
      "children": [
        2
      ],
      "matrix": [
        0.009999999776482582,
        0.0,
        0.0,
        0.0,
        0.0,
        0.0,
        0.009999999776482582,
        0.0,
        0.0,
        -0.009999999776482582,
        0.0,
        0.0,
        0.0,
        0.0,
        0.0,
        1.0
      ],
      "name": "99068623769c443590990da4d94f4fa3.fbx"
    },
    {
      "children": [
        3
      ],
      "name": "RootNode"
    },
    {
      "children": [
        4
      ],
      "matrix": [
        100.0,
        0.0,
        0.0,
        0.0,
        0.0,
        -1.629206793918314e-05,
        -99.99999999999868,
        0.0,
        0.0,
        99.99999999999868,
        -1.629206793918314e-05,
        0.0,
        81.05001831054688,
        34.897518157958984,
        143.64999389648438,
        1.0
      ],
      "name": "Wheel FL"
    },
    {
      "mesh": 0,
      "name": "Wheel FL_Tire_0"
    }
  ],
  "samplers": [
    {
      "magFilter": 9729,
      "minFilter": 9987,
      "wrapS": 10497,
      "wrapT": 10497
    }
  ],
  "scene": 0,
  "scenes": [
    {
      "name": "Sketchfab_Scene",
      "nodes": [
        0
      ]
    }
  ],
  "textures": [
    {
      "sampler": 0,
      "source": 0
    },
    {
      "sampler": 0,
      "source": 1
    },
    {
      "sampler": 0,
      "source": 2
    }
  ]
}
